<mxfile host="drawio-plugin" modified="2021-05-26T11:01:36.580Z" agent="5.0 (Macintosh; Intel Mac OS X 11_2_3) AppleWebKit/537.36 (KHTML, like Gecko) Chrome/87.0.4280.141 Safari/537.36" etag="5uZ0m1bdPiMPdEdHbm3R" version="14.6.6" type="embed"><diagram id="K2DqNs0AzOiKwqhFZqn-" name="Page-1"><mxGraphModel dx="2362" dy="742" grid="1" gridSize="10" guides="1" tooltips="1" connect="1" arrows="1" fold="1" page="1" pageScale="1" pageWidth="827" pageHeight="1169" math="0" shadow="0"><root><mxCell id="0"/><mxCell id="1" parent="0"/><mxCell id="4KjDwE-u5lRQgsTlzhHM-1" value="Client" style="shape=umlActor;verticalLabelPosition=bottom;verticalAlign=top;html=1;outlineConnect=0;" parent="1" vertex="1"><mxGeometry x="50" y="300" width="30" height="60" as="geometry"/></mxCell><mxCell id="4KjDwE-u5lRQgsTlzhHM-2" value="Palisade&amp;nbsp;&lt;br&gt;Service" style="rounded=1;whiteSpace=wrap;html=1;" parent="1" vertex="1"><mxGeometry x="160" y="160" width="120" height="60" as="geometry"/></mxCell><mxCell id="4KjDwE-u5lRQgsTlzhHM-3" value="User&lt;br&gt;Service" style="rounded=1;whiteSpace=wrap;html=1;" parent="1" vertex="1"><mxGeometry x="320" y="160" width="120" height="60" as="geometry"/></mxCell><mxCell id="4KjDwE-u5lRQgsTlzhHM-4" value="Resource&lt;br&gt;Service" style="rounded=1;whiteSpace=wrap;html=1;" parent="1" vertex="1"><mxGeometry x="480" y="160" width="120" height="60" as="geometry"/></mxCell><mxCell id="4KjDwE-u5lRQgsTlzhHM-5" value="Policy&lt;br&gt;Service" style="rounded=1;whiteSpace=wrap;html=1;" parent="1" vertex="1"><mxGeometry x="640" y="210" width="120" height="60" as="geometry"/></mxCell><mxCell id="4KjDwE-u5lRQgsTlzhHM-6" value="Attribute-Masking&lt;br&gt;Service" style="rounded=1;whiteSpace=wrap;html=1;" parent="1" vertex="1"><mxGeometry x="480" y="320" width="120" height="60" as="geometry"/></mxCell><mxCell id="4KjDwE-u5lRQgsTlzhHM-7" value="Filtered-Resource&lt;br&gt;Service" style="rounded=1;whiteSpace=wrap;html=1;" parent="1" vertex="1"><mxGeometry x="280" y="380" width="120" height="60" as="geometry"/></mxCell><mxCell id="4KjDwE-u5lRQgsTlzhHM-8" value="Topic-Offset&lt;br&gt;Service" style="rounded=1;whiteSpace=wrap;html=1;" parent="1" vertex="1"><mxGeometry x="280" y="280" width="120" height="60" as="geometry"/></mxCell><mxCell id="4KjDwE-u5lRQgsTlzhHM-9" value="" style="endArrow=classic;html=1;entryX=0;entryY=0.5;entryDx=0;entryDy=0;" parent="1" target="4KjDwE-u5lRQgsTlzhHM-2" edge="1"><mxGeometry width="50" height="50" relative="1" as="geometry"><mxPoint x="90" y="320" as="sourcePoint"/><mxPoint x="150" y="150" as="targetPoint"/></mxGeometry></mxCell><mxCell id="tTpZeJfRO08eOyEqsht3-3" value="Data&lt;br&gt;Service" style="rounded=1;whiteSpace=wrap;html=1;" parent="1" vertex="1"><mxGeometry x="160" y="540" width="120" height="60" as="geometry"/></mxCell><mxCell id="tTpZeJfRO08eOyEqsht3-9" value="" style="endArrow=classic;html=1;entryX=0;entryY=0.5;entryDx=0;entryDy=0;" parent="1" target="4KjDwE-u5lRQgsTlzhHM-3" edge="1"><mxGeometry width="50" height="50" relative="1" as="geometry"><mxPoint x="280" y="190" as="sourcePoint"/><mxPoint x="320" y="140" as="targetPoint"/></mxGeometry></mxCell><mxCell id="tTpZeJfRO08eOyEqsht3-11" value="" style="endArrow=classic;html=1;entryX=0;entryY=0.5;entryDx=0;entryDy=0;" parent="1" target="4KjDwE-u5lRQgsTlzhHM-4" edge="1"><mxGeometry width="50" height="50" relative="1" as="geometry"><mxPoint x="440" y="190" as="sourcePoint"/><mxPoint x="510" y="110" as="targetPoint"/></mxGeometry></mxCell><mxCell id="tTpZeJfRO08eOyEqsht3-12" value="" style="endArrow=classic;html=1;" parent="1" target="4KjDwE-u5lRQgsTlzhHM-5" edge="1"><mxGeometry width="50" height="50" relative="1" as="geometry"><mxPoint x="600" y="190" as="sourcePoint"/><mxPoint x="670" y="110" as="targetPoint"/></mxGeometry></mxCell><mxCell id="tTpZeJfRO08eOyEqsht3-13" value="" style="endArrow=classic;html=1;entryX=1;entryY=0;entryDx=0;entryDy=0;" parent="1" target="4KjDwE-u5lRQgsTlzhHM-6" edge="1"><mxGeometry width="50" height="50" relative="1" as="geometry"><mxPoint x="640" y="270" as="sourcePoint"/><mxPoint x="590" y="330" as="targetPoint"/></mxGeometry></mxCell><mxCell id="tTpZeJfRO08eOyEqsht3-14" value="" style="endArrow=classic;html=1;entryX=1;entryY=0.5;entryDx=0;entryDy=0;" parent="1" target="4KjDwE-u5lRQgsTlzhHM-8" edge="1"><mxGeometry width="50" height="50" relative="1" as="geometry"><mxPoint x="480" y="330" as="sourcePoint"/><mxPoint x="550" y="250" as="targetPoint"/></mxGeometry></mxCell><mxCell id="tTpZeJfRO08eOyEqsht3-20" value="" style="endArrow=classic;html=1;entryX=0;entryY=0.5;entryDx=0;entryDy=0;" parent="1" target="tTpZeJfRO08eOyEqsht3-3" edge="1"><mxGeometry width="50" height="50" relative="1" as="geometry"><mxPoint x="80" y="340" as="sourcePoint"/><mxPoint x="180" y="420" as="targetPoint"/></mxGeometry></mxCell><mxCell id="tTpZeJfRO08eOyEqsht3-22" value="Audit&lt;br&gt;Service" style="rounded=1;whiteSpace=wrap;html=1;" parent="1" vertex="1"><mxGeometry x="640" y="540" width="120" height="60" as="geometry"/></mxCell><mxCell id="2" value="" style="endArrow=classic;html=1;entryX=1;entryY=0.5;entryDx=0;entryDy=0;exitX=0;exitY=0.5;exitDx=0;exitDy=0;" parent="1" source="4KjDwE-u5lRQgsTlzhHM-6" target="4KjDwE-u5lRQgsTlzhHM-7" edge="1"><mxGeometry width="50" height="50" relative="1" as="geometry"><mxPoint x="480" y="340" as="sourcePoint"/><mxPoint x="400" y="320" as="targetPoint"/></mxGeometry></mxCell><mxCell id="3" value="" style="endArrow=classic;html=1;entryX=0.5;entryY=0;entryDx=0;entryDy=0;" parent="1" target="4KjDwE-u5lRQgsTlzhHM-7" edge="1"><mxGeometry width="50" height="50" relative="1" as="geometry"><mxPoint x="340" y="340" as="sourcePoint"/><mxPoint x="260" y="320" as="targetPoint"/></mxGeometry></mxCell><mxCell id="4" value="" style="endArrow=classic;html=1;entryX=0.5;entryY=1;entryDx=0;entryDy=0;exitX=1;exitY=0.5;exitDx=0;exitDy=0;" parent="1" source="tTpZeJfRO08eOyEqsht3-3" target="4KjDwE-u5lRQgsTlzhHM-6" edge="1"><mxGeometry width="50" height="50" relative="1" as="geometry"><mxPoint x="280" y="510" as="sourcePoint"/><mxPoint x="200" y="490" as="targetPoint"/></mxGeometry></mxCell><mxCell id="5" value="" style="endArrow=classic;html=1;exitX=0;exitY=0.5;exitDx=0;exitDy=0;" parent="1" source="4KjDwE-u5lRQgsTlzhHM-7" edge="1"><mxGeometry width="50" height="50" relative="1" as="geometry"><mxPoint x="200" y="400" as="sourcePoint"/><mxPoint x="90" y="330" as="targetPoint"/></mxGeometry></mxCell><mxCell id="8" value="" style="endArrow=classic;html=1;exitX=0.5;exitY=1;exitDx=0;exitDy=0;jumpStyle=arc;entryX=0;entryY=0.5;entryDx=0;entryDy=0;jumpSize=10;dashed=1;" parent="1" source="4KjDwE-u5lRQgsTlzhHM-2" target="tTpZeJfRO08eOyEqsht3-22" edge="1"><mxGeometry width="50" height="50" relative="1" as="geometry"><mxPoint x="220" y="260" as="sourcePoint"/><mxPoint x="650" y="540" as="targetPoint"/><Array as="points"><mxPoint x="220" y="480"/><mxPoint x="230" y="480"/></Array></mxGeometry></mxCell><mxCell id="12" value="" style="endArrow=classic;html=1;exitX=1;exitY=0.5;exitDx=0;exitDy=0;dashed=1;" parent="1" source="tTpZeJfRO08eOyEqsht3-3" edge="1"><mxGeometry width="50" height="50" relative="1" as="geometry"><mxPoint x="380" y="600" as="sourcePoint"/><mxPoint x="640" y="570" as="targetPoint"/></mxGeometry></mxCell><mxCell id="13" value="" style="endArrow=classic;html=1;entryX=0.5;entryY=0;entryDx=0;entryDy=0;dashed=1;jumpStyle=gap;jumpSize=10;" parent="1" target="tTpZeJfRO08eOyEqsht3-22" edge="1"><mxGeometry width="50" height="50" relative="1" as="geometry"><mxPoint x="380" y="220" as="sourcePoint"/><mxPoint x="300" y="200" as="targetPoint"/><Array as="points"><mxPoint x="650" y="310"/></Array></mxGeometry></mxCell><mxCell id="14" value="" style="endArrow=classic;html=1;dashed=1;jumpStyle=gap;jumpSize=10;" parent="1" edge="1"><mxGeometry width="50" height="50" relative="1" as="geometry"><mxPoint x="540" y="220" as="sourcePoint"/><mxPoint x="700" y="540" as="targetPoint"/><Array as="points"><mxPoint x="690" y="330"/></Array></mxGeometry></mxCell><mxCell id="15" value="" style="endArrow=classic;html=1;exitX=0.5;exitY=1;exitDx=0;exitDy=0;dashed=1;" parent="1" source="4KjDwE-u5lRQgsTlzhHM-5" edge="1"><mxGeometry width="50" height="50" relative="1" as="geometry"><mxPoint x="610" y="460" as="sourcePoint"/><mxPoint x="700" y="540" as="targetPoint"/></mxGeometry></mxCell><mxCell id="16" value="" style="endArrow=classic;html=1;exitX=1;exitY=1;exitDx=0;exitDy=0;dashed=1;" parent="1" source="4KjDwE-u5lRQgsTlzhHM-6" edge="1"><mxGeometry width="50" height="50" relative="1" as="geometry"><mxPoint x="670" y="510" as="sourcePoint"/><mxPoint x="700" y="530" as="targetPoint"/></mxGeometry></mxCell><mxCell id="18" value="" style="endArrow=classic;html=1;exitX=0.5;exitY=1;exitDx=0;exitDy=0;dashed=1;jumpStyle=gap;jumpSize=10;" parent="1" source="4KjDwE-u5lRQgsTlzhHM-7" edge="1"><mxGeometry width="50" height="50" relative="1" as="geometry"><mxPoint x="520" y="490" as="sourcePoint"/><mxPoint x="640" y="570" as="targetPoint"/></mxGeometry></mxCell></root></mxGraphModel></diagram></mxfile>